# xmcd CD database file
#
# Track frame offsets:
#	150
#	3183
#	16218
#	28854
#	51912
#	69837
#	83793
#	108618
#	136818
#	150657
#	172401
#	193935
#	203739
#	234363
#
# Disc length: 3172 seconds
#
# Revision: 0
# Processed by: cddbd v1.4PL0 Copyright (c) Steve Scherf et al.
# Submitted via: CDex 1.50
#
DISCID=b50c620e
DTITLE=Various Artist - Voices of the blue planet
DYEAR=2001
DGENRE=New Age
TTITLE0=Blue planet
TTITLE1=Viva la musica
TTITLE2=Ituxi Jean
TTITLE3=Chamane
TTITLE4=Cocoledo
TTITLE5=Lost in eden
TTITLE6=China in blue
TTITLE7=Spiral mantra
TTITLE8=Vox humanis
TTITLE9=Karmine
TTITLE10=Asiapical
TTITLE11=Voz de la luna
TTITLE12=Mirage
TTITLE13=Blue planet (reprise)
EXTD=YEAR: 2001
EXTT0=
EXTT1=
EXTT2=
EXTT3=
EXTT4=
EXTT5=
EXTT6=
EXTT7=
EXTT8=
EXTT9=
EXTT10=
EXTT11=
EXTT12=
EXTT13=
PLAYORDER=
